<?xml version="1.0" encoding="UTF-8"?>
<svg width="236px" height="371px" viewBox="0 0 236 371" version="1.1" xmlns="http://www.w3.org/2000/svg" xmlns:xlink="http://www.w3.org/1999/xlink">
    <!-- Generator: Sketch 64 (93537) - https://sketch.com -->
    <title>special-ref</title>
    <desc>Created with Sketch.</desc>
    <g id="Page-1" stroke="none" stroke-width="1" fill="none" fill-rule="evenodd" stroke-linecap="round" stroke-linejoin="round">
        <g id="side-by-side" transform="translate(-401.000000, 1.000000)">
            <g id="special-ref" transform="translate(402.000000, 0.000000)">
                <g id="shorthand" transform="translate(6.000000, 15.000000)" stroke="#F85DB3">
                    <path d="M137.708,0.663 C137.708,0.235 137.708,0.041 137.708,0.081 C137.708,0.0516666667 137.708,0.0296666667 137.708,0.015 C137.89,-0.0756666667 137.838,0.491333333 137.552,1.716 C137.266,2.94066667 136.511,4.587 135.287,6.655 C134.063,8.723 132.95,10.6726667 131.948,12.504 C130.945333,14.3353333 129.619667,17.094 127.971,20.78 C128.143667,20.9893333 129.373667,20.2863333 131.661,18.671 C133.948333,17.0556667 135.953,15.619 137.675,14.361 C139.397,13.103 141.036333,11.9766667 142.593,10.982 C144.149667,9.98733333 145.519,9.164 146.701,8.512 C147.883,7.86 149.001667,7.24466667 150.057,6.666 C151.111667,6.08666667 151.717333,5.73466667 151.874,5.61" id="STROKE_ddaaa1a7-dd2c-4452-85d7-7619e805a14b" stroke-width="3.06"></path>
                    <path d="M65.331,85.475 C65.3123333,85.6036667 65.303,85.6473333 65.303,85.606 C65.3036667,85.564 65.1556667,85.6773333 64.859,85.946 C64.5623333,86.2146667 64.41,86.3796667 64.402,86.441 C64.3933333,86.5016667 64.4026667,86.4906667 64.43,86.408 C64.4566667,86.3246667 64.3763333,86.5086667 64.189,86.96 C64.0023333,87.4113333 63.7133333,87.8246667 63.322,88.2 C63.1126667,87.6966667 63.373,86.8276667 64.103,85.593 C64.833,84.359 65.9466667,83.0006667 67.444,81.518 C68.9406667,80.0353333 70.874,78.069 73.244,75.619 C75.614,73.169 78.462,70.914 81.788,68.854 C85.114,66.794 86.8616667,65.681 87.031,65.515" id="STROKE_b2252138-25f4-45b9-82be-381b95cea4c1" stroke-width="2.847"></path>
                    <path d="M124.001,66.563 C123.977667,66.563 123.867,66.563 123.669,66.563 C123.459667,66.757 125.193667,66.7546667 128.871,66.556 C132.548333,66.3573333 135.698333,66.0406667 138.321,65.606 C140.943,65.1713333 143.280333,64.6956667 145.333,64.179 C145.629667,64.667 145.89,67.2526667 146.114,71.936 C146.338,76.62 146.708,80.3443333 147.224,83.109 C147.74,85.8743333 148.024,87.3136667 148.076,87.427" id="STROKE_cfb36c21-d066-44a7-8ee4-1203090a97c4" stroke-width="3.06"></path>
                    <path d="M205.855,67.742 C206.167667,67.4046667 206.269667,67.2583333 206.161,67.303 C206.052333,67.3476667 206.395667,67.269 207.191,67.067 C207.864333,67.253 207.986667,73.1883333 207.558,84.873 L207.585,84.873 C207.585,84.8903333 207.585,84.9646667 207.585,85.096 C206.795667,85.3586667 205.214,85.823 202.84,86.489 C200.466,87.1543333 197.893333,87.835 195.122,88.531 C192.351333,89.2263333 190.280667,89.619 188.91,89.709 C187.54,89.7983333 186.753,89.854 186.549,89.876" id="STROKE_93f7e459-b0da-4dc1-bcdb-3599098d5c5e" stroke-width="3.06"></path>
                    <path d="M2.101,153.882 C1.573,153.882 1.36333333,153.882 1.472,153.882 C1.116,153.865333 0.959,153.839333 1.001,153.804 C0.463666667,153.942667 2.354,153.741 6.672,153.199 C10.99,152.656333 14.5223333,152.055 17.269,151.395 C20.015,150.735667 21.9766667,150.458 23.154,150.562 C24.3306667,150.666667 24.954,150.773667 25.024,150.883" id="STROKE_908a1d32-f3c3-4f06-b8b9-d9e8004d6a9d" stroke-width="3.06"></path>
                    <path d="M125.94,217.286 C125.716,217.01 125.604333,216.693667 125.605,216.337 C125.605667,215.980333 125.613,215.390333 125.627,214.567 C125.641667,213.743 125.627667,213.078667 125.585,212.574 C125.543,212.069333 125.621333,210.576333 125.82,208.095 C126.018,205.614333 126.188667,202.889667 126.332,199.921 C126.475333,196.952333 126.845333,194.105333 127.442,191.38 C128.240667,191.06 128.505667,190.955333 128.237,191.066 C128.705,190.992 129.854667,190.628667 131.686,189.976 C133.516667,189.323333 135.916,188.839 138.884,188.523 C141.852,188.207 145.248,187.906333 149.072,187.621 C149.050667,187.736333 149.065667,187.819667 149.117,187.871 C149.168333,187.921667 149.171667,187.923667 149.127,187.877 C149.082333,187.830333 149.134667,187.897667 149.284,188.079 C149.433333,188.260333 149.587333,188.445333 149.746,188.634 C149.904667,188.822667 149.982333,188.926667 149.979,188.946 C149.975667,188.964667 149.973,188.951667 149.971,188.907 C149.968333,188.862333 150.007333,188.910333 150.088,189.051 C150.168,189.191 150.269,189.48 150.391,189.918 C150.513,190.356667 150.562667,190.680667 150.54,190.89 C150.518,191.1 150.511333,191.301667 150.52,191.495 C150.528667,191.688333 150.535,191.931 150.539,192.223 C150.543,192.515 150.526667,193.271333 150.49,194.492 C150.453333,195.712667 150.444333,197.577333 150.463,200.086 C150.481667,202.594667 150.559,205.085 150.695,207.557 C150.831667,210.029 150.978,213.979333 151.134,219.408 C151.058,219.425333 150.982333,219.443 150.907,219.461" id="STROKE_d2953ced-5283-4e91-b759-4560dc9c7dbb" stroke-width="3.06"></path>
                    <path d="M188.746,319.18 C188.793333,319.115333 188.693667,318.835 188.447,318.339 C188.651667,318.375667 188.978,318.331333 189.426,318.206 C189.873333,318.08 190.526667,317.871 191.386,317.579 C192.246,317.287667 193.039333,317.049667 193.766,316.865 C194.492667,316.681 195.091333,316.530667 195.562,316.414 C196.032667,316.298 196.345,316.218333 196.499,316.175 C196.653,316.132333 197.130333,316.034667 197.931,315.882 C198.731667,315.729333 199.439,315.642333 200.053,315.621 C200.667,315.600333 201.426,315.547 202.33,315.461 C203.234,315.375667 204.172333,315.861667 205.145,316.919 C206.117667,317.976333 206.748,319.109333 207.036,320.318 C207.323333,321.527333 207.448667,322.524 207.412,323.308 C207.374667,324.092 207.032333,324.988333 206.385,325.997 C205.737,327.005667 205.072667,327.976 204.392,328.908 C203.710667,329.84 202.897333,330.557667 201.952,331.061 C201.006667,331.564333 198.585667,331.848667 194.689,331.914 C194.853667,331.912 196.310333,331.933 199.059,331.977 C201.808333,332.021 203.842667,332.023333 205.162,331.984 C206.482,331.944 207.846,332.078333 209.254,332.387 C210.661333,332.695 211.866667,333.300333 212.87,334.203 C213.872667,335.105 214.509333,335.906667 214.78,336.608 C215.050667,337.309333 215.162333,337.821 215.115,338.143 C215.067667,338.465 215.116667,338.86 215.262,339.328 C215.406667,339.796 214.656,340.607667 213.01,341.763 C211.364,342.917667 209.971667,343.815667 208.833,344.457 C207.694333,345.098333 205.813,345.621333 203.189,346.026 C200.565667,346.430667 197.947333,346.577333 195.334,346.466 C192.721333,346.354667 190.693,346.027333 189.249,345.484 C187.805,344.940667 186.865,344.521667 186.429,344.227" id="STROKE_14b9e516-b181-4613-a9d0-227a22da5486" stroke-width="3.06"></path>
                </g>
                <g id="lower" transform="translate(68.000000, 69.000000)" stroke="#FFB352" stroke-width="3.06">
                    <path d="M0.475,13.371 C0.491,12.9376667 1.02666667,11.252 2.082,8.314 C2.22266667,7.408 2.08233333,8.741 1.661,12.313 C1.23966667,15.8843333 1.02733333,19.0433333 1.024,21.79 C1.02066667,24.5366667 1.01466667,26.528 1.006,27.764 C0.996666667,29.0006667 1.016,30.0306667 1.064,30.854 C1.112,31.6773333 1.21466667,32.8493333 1.372,34.37 C1.472,34.326 1.56466667,34.03 1.65,33.482 C1.73533333,32.9346667 1.797,32.4373333 1.835,31.99 C1.873,31.5433333 1.90633333,31.236 1.935,31.068 C1.96433333,30.9006667 1.96866667,30.8796667 1.948,31.005 C1.92733333,31.131 2.02733333,30.3063333 2.248,28.531 C2.46866667,26.7556667 2.90066667,25.0776667 3.544,23.497 C4.18733333,21.9163333 4.81733333,20.6283333 5.434,19.633 C6.05133333,18.6376667 7.26666667,17.383 9.08,15.869 C10.8926667,14.3543333 12.806,13.1643333 14.82,12.299 C16.834,11.433 18.632,10.8596667 20.214,10.579 C21.7953333,10.2983333 23.1366667,10.2266667 24.238,10.364 C25.3393333,10.5013333 25.9896667,10.6306667 26.189,10.752" id="STROKE_ac0a3a65-6db1-478c-8b85-4ab03b6c50a3"></path>
                    <path d="M62.573,12.769 C62.5776667,12.3516667 62.586,12.111 62.598,12.047 C62.61,11.9823333 62.619,11.9446667 62.625,11.934 C62.631,11.9226667 62.6406667,11.8913333 62.654,11.84 C62.6666667,11.788 62.7086667,11.6486667 62.78,11.422 C62.8513333,11.1946667 62.9526667,10.9113333 63.084,10.572 C63.2153333,10.232 63.286,10.0376667 63.296,9.989 C63.306,9.941 63.5573333,9.30333333 64.05,8.076 C63.8153333,8.52533333 63.8776667,17.645 64.237,35.435 C64.2556667,35.435 64.2743333,35.435 64.293,35.435 C64.2336667,35.9423333 64.2246667,35.723 64.266,34.777 C64.308,33.8303333 64.4946667,32.919 64.826,32.043 C65.1566667,31.1663333 65.462,30.3763333 65.742,29.673 C66.0213333,28.9703333 66.2366667,28.391 66.388,27.935 C66.5393333,27.479 66.9446667,26.372 67.604,24.614 C68.2633333,22.8553333 68.828,21.524 69.298,20.62 C69.768,19.7153333 70.776,18.377 72.322,16.605 C73.8686667,14.8323333 75.1083333,13.538 76.041,12.722 C76.9736667,11.906 77.6336667,11.2786667 78.021,10.84 C78.4083333,10.4013333 79.04,10.1733333 79.916,10.156 C80.7913333,10.138 81.417,10.1963333 81.793,10.331 C82.169,10.465 82.4513333,10.6396667 82.64,10.855 C82.828,11.071 82.874,11.1466667 82.778,11.082 C82.6813333,11.0173333 82.7783333,11.096 83.069,11.318 C83.359,11.5393333 83.746,12.9013333 84.23,15.404 C84.7133333,17.906 84.848,24.3076667 84.634,34.609 C84.69,34.609 84.7926667,34.5833333 84.942,34.532 C85.092,34.4806667 85.2353333,34.4033333 85.372,34.3" id="STROKE_42c47f07-5fb2-4c9e-83d8-41a523a071c1"></path>
                    <path d="M155.656,2.416 C155.656,2.43933333 155.656,2.46266667 155.656,2.486 C155.674667,2.486 155.774333,2.486 155.955,2.486 C156.154333,2.172 155.784667,1.797 154.846,1.361 C153.908,0.925 152.857,0.785 151.693,0.941 C150.528333,1.097 149.275667,1.59933333 147.935,2.448 C146.594333,3.29666667 145.521667,4.033 144.717,4.657 C143.913,5.281 143.457,5.66733333 143.349,5.816 C143.241667,5.96466667 143.27,5.97333333 143.434,5.842 C143.434,5.92466667 143.421667,6.12666667 143.397,6.448 C143.373,6.76933333 143.365,6.89733333 143.373,6.832 C143.381,6.76666667 143.384,6.75033333 143.382,6.783 C143.380667,6.81566667 143.393333,6.98266667 143.42,7.284 C143.446667,7.586 143.447667,7.694 143.423,7.608 C143.398333,7.52266667 143.412,7.55266667 143.464,7.698 C143.516,7.844 143.971667,8.30033333 144.831,9.067 C145.691,9.833 146.948,11.1276667 148.602,12.951 C150.256,14.7743333 151.521333,16.1713333 152.398,17.142 C153.274,18.1133333 153.965667,18.9796667 154.473,19.741 C154.981,20.503 155.343333,21.7573333 155.56,23.504 C155.776667,25.2513333 155.868,26.4886667 155.834,27.216 C155.8,27.944 155.704333,28.6853333 155.547,29.44 C155.389,30.1946667 154.835333,31.0203333 153.886,31.917 C152.937333,32.8143333 151.690333,33.5203333 150.145,34.035 C148.600333,34.5496667 147.125,34.812 145.719,34.822 C144.313667,34.832 141.409333,34.9416667 137.006,35.151 C132.602667,35.361 129.053667,35.6243333 126.359,35.941 C123.665,36.2576667 122.268,36.4253333 122.168,36.444" id="STROKE_7279c644-7ba1-4fb9-8c73-b8b75704fd25"></path>
                </g>
                <g id="special" stroke="#FFB352">
                    <path d="M124.818,13.126 C124.835333,13.3046667 124.816667,12.945 124.762,12.047 C124.736667,12.047 124.711667,12.047 124.687,12.047 C124.578333,12.929 124.531333,13.2896667 124.546,13.129 C124.560667,12.9683333 124.572667,13.01 124.582,13.254 C124.591333,13.498 124.464333,13.9203333 124.201,14.521 C123.937,15.1223333 123.641,17.494 123.313,21.636 C122.985,25.7773333 122.803667,29.1843333 122.769,31.857 C122.734333,34.529 122.725667,40.3983333 122.743,49.465 C122.397,49.4736667 125.033,49.4833333 130.651,49.494 C136.269,49.5046667 140.594,49.4636667 143.626,49.371 C146.658667,49.2783333 149.009,49.2916667 150.677,49.411 C152.345,49.5296667 154.246,49.779 156.38,50.159 C158.514,50.5383333 160.813,50.12 163.277,48.904 C163.395667,48.7633333 163.452667,45.0946667 163.448,37.898 C163.442667,30.7006667 163.455667,25.119 163.487,21.153 C163.517667,17.187 163.479333,13.9803333 163.372,11.533 C163.264667,9.08566667 162.603667,5.442 161.389,0.602 C160.868333,0.460666667 158.614667,1.13666667 154.628,2.63 C150.641333,4.12266667 147.492,5.28166667 145.18,6.107 C142.867333,6.93166667 140.801333,7.584 138.982,8.064 C137.163333,8.544 135.365667,8.89166667 133.589,9.107 C131.812333,9.32233333 129.456333,9.50533333 126.521,9.656 C123.585,9.80733333 122.026667,9.932 121.846,10.03" id="STROKE_7fe6f32f-2a01-4131-b324-4cb17f7b733e" stroke-width="2.99"></path>
                    <path d="M1.274,138.827 C1.23466667,138.829667 1.17266667,138.091667 1.088,136.613 C1.204,136.317 1.14033333,139.357 0.897,145.733 C0.654333333,152.108333 0.543333333,164.062667 0.564,181.596 C1.05266667,181.53 1.24766667,181.556 1.149,181.674 C1.04966667,181.792667 1.95733333,181.610667 3.872,181.128 C5.78733333,180.644667 7.49133333,180.291667 8.984,180.069 C10.4773333,179.846333 11.5933333,179.697 12.332,179.621 C13.0706667,179.545 13.7743333,179.455667 14.443,179.353 C15.1116667,179.250333 16.5193333,179.072333 18.666,178.819 C20.8126667,178.565667 22.778,178.411 24.562,178.355 C26.346,178.299 28.927,178.209333 32.305,178.086 C35.6823333,177.963333 38.3056667,177.857 40.175,177.767 C42.0443333,177.677667 44.314,177.226 46.984,176.412 C47.4626667,176.400667 47.1973333,175.411667 46.188,173.445 C45.1786667,171.477667 44.384,168.024 43.804,163.084 C43.2233333,158.144 42.8926667,153.958667 42.812,150.528 C42.7306667,147.096667 42.5983333,142.173667 42.415,135.759 C42.441,135.641 42.0263333,135.586667 41.171,135.596 C40.3156667,135.606 38.4506667,135.878667 35.576,136.414 C32.7006667,136.949333 29.8643333,137.530667 27.067,138.158 C24.2696667,138.784667 20.7526667,139.163333 16.516,139.294 C12.2793333,139.424667 9.091,139.285 6.951,138.875 C4.811,138.464333 3.69133333,138.228667 3.592,138.168" id="STROKE_570b30f9-9b8b-4239-a3cf-cfe895840143" stroke-width="3.005"></path>
                    <path d="M126.182,203.239 C126.182,203.215 126.182,201.412667 126.182,197.832 C126.201333,198.030667 126.045,200.013 125.713,203.779 C125.381,207.544333 125.205667,210.827 125.187,213.627 C125.168333,216.426333 125.162333,220.025667 125.169,224.425 C125.175667,228.824333 125.177,234.734667 125.173,242.156 C125.627667,242.156 125.833,242.156 125.789,242.156 C126.577667,242.156 126.848667,242.163667 126.602,242.179 C126.354667,242.194333 126.463333,242.218333 126.928,242.251 C127.392,242.284333 129.123333,242.075333 132.122,241.624 C135.12,241.173333 138.362,240.942333 141.848,240.931 C145.333333,240.919667 148.826,241.095 152.326,241.457 C155.826,241.819 158.781667,242.052333 161.193,242.157 C163.604333,242.261667 166.734333,241.715 170.583,240.517 C170.583,239.837 170.583,239.577667 170.583,239.739 C170.583,238.867667 170.583,238.531667 170.583,238.731 C170.583,237.739667 170.583,237.363667 170.583,237.603 C170.630333,237.211667 170.205333,234.1 169.308,228.268 C168.410667,222.436 168.536667,212.253333 169.686,197.72 C170.347333,197.890667 168.041667,197.876333 162.769,197.677 C157.497,197.477667 153.317333,197.259 150.23,197.021 C147.143333,196.783 144.685333,196.748333 142.856,196.917 C141.026667,197.086333 139.430333,197.292333 138.067,197.535 C136.703,197.777667 135.488667,197.991 134.424,198.175 C133.359333,198.358333 131.203667,198.958333 127.957,199.975 C127.975667,199.914333 127.994333,199.853667 128.013,199.793" id="STROKE_5a79000d-069b-4f95-aeb6-6e28a082e9fd" stroke-width="3.013"></path>
                    <path d="M189.813,329.837 C189.761,329.756333 189.814,328.505 189.972,326.083 C190.85,326.336333 190.952333,330.910333 190.279,339.805 C189.605667,348.699667 188.896,358.265 188.15,368.501 C188.17,368.217 188.338333,367.883667 188.655,367.501 C188.971667,367.118333 189.15,366.912 189.19,366.882 C189.23,366.851333 189.330333,366.768333 189.491,366.633 C189.651667,366.497 189.860667,366.345 190.118,366.177 C190.375333,366.009667 191.017667,365.689333 192.045,365.216 C193.072333,364.743333 194.754,364.285333 197.09,363.842 C199.426,363.398667 201.352667,363.075667 202.87,362.873 C204.387333,362.671 206.778,362.506333 210.042,362.379 C213.305333,362.252333 215.904333,362.051667 217.839,361.777 C219.773,361.503 222.078,361.145667 224.754,360.705 C227.43,360.263667 230.209667,360.088667 233.093,360.18 C233.191,360.248 232.914333,359.082333 232.263,356.683 C231.612333,354.283 231.09,351.684 230.696,348.886 C230.301333,346.088 230.011,342.617667 229.825,338.475 C229.639667,334.331667 229.333667,330.371333 228.907,326.594 C229.636333,326.662667 228.923,326.402 226.767,325.812 C224.611667,325.221333 222.833667,324.856333 221.433,324.717 C220.031667,324.578333 217.575333,324.519667 214.064,324.541 C210.552667,324.563 202.849,324.582 190.953,324.598 C191.009,324.481333 191.065,324.364333 191.121,324.247" id="STROKE_5bbeb9d9-7abf-4350-8bc1-95379e1f1a83" stroke-width="3.015"></path>
                </g>
            </g>
        </g>
    </g>
</svg>